<?xml version="1.0" encoding="UTF-8" standalone="no"?>
<svg
   xmlns:dc="http://purl.org/dc/elements/1.1/"
   xmlns:cc="http://creativecommons.org/ns#"
   xmlns:rdf="http://www.w3.org/1999/02/22-rdf-syntax-ns#"
   xmlns:svg="http://www.w3.org/2000/svg"
   xmlns="http://www.w3.org/2000/svg"
   xmlns:sodipodi="http://sodipodi.sourceforge.net/DTD/sodipodi-0.dtd"
   xmlns:inkscape="http://www.inkscape.org/namespaces/inkscape"
   version="1.1"
   id="svg2"
   xml:space="preserve"
   width="1066.6667"
   height="1066.6667"
   viewBox="0 0 1066.6667 1066.6667"
   sodipodi:docname="logo.svg"
   inkscape:version="1.0.2 (e86c870879, 2021-01-15)"><metadata
     id="metadata8"><rdf:RDF><cc:Work
         rdf:about=""><dc:format>image/svg+xml</dc:format><dc:type
           rdf:resource="http://purl.org/dc/dcmitype/StillImage" /><dc:title></dc:title></cc:Work></rdf:RDF></metadata><defs
     id="defs6"><clipPath
       clipPathUnits="userSpaceOnUse"
       id="clipPath18"><path
         d="M 559.277,4.436 H 800 V 800 H 559.277 Z"
         id="path16" /></clipPath><clipPath
       clipPathUnits="userSpaceOnUse"
       id="clipPath46"><path
         d="M 0,800 H 800 V 0 H 0 Z"
         id="path44" /></clipPath></defs><sodipodi:namedview
     pagecolor="#ffffff"
     bordercolor="#666666"
     borderopacity="1"
     objecttolerance="10"
     gridtolerance="10"
     guidetolerance="10"
     inkscape:pageopacity="0"
     inkscape:pageshadow="2"
     inkscape:window-width="2560"
     inkscape:window-height="1385"
     id="namedview4"
     showgrid="false"
     inkscape:zoom="0.47249996"
     inkscape:cx="-115.75337"
     inkscape:cy="557.47153"
     inkscape:window-x="0"
     inkscape:window-y="27"
     inkscape:window-maximized="1"
     inkscape:current-layer="g10" /><g
     id="g10"
     inkscape:groupmode="layer"
     inkscape:label="logo"
     transform="matrix(1.3333333,0,0,-1.3333333,0,1066.6667)"><g
       id="g68"
       transform="matrix(1.183792,0,0,1.1793922,-69.898559,-84.961035)"
       style="stroke-width:0.846318"><g
         id="g12"
         style="stroke-width:0.846318"><g
           id="g14"
           clip-path="url(#clipPath18)"
           style="stroke-width:0.846318"><g
             id="g20"
             transform="translate(722.4023,247.6611)"
             style="stroke-width:0.846318"><path
               d="m 0,0 c 0,-90.091 -73.033,-163.124 -163.125,-163.124 -90.091,0 -163.124,73.033 -163.124,163.124 0,90.092 73.033,163.125 163.124,163.125 C -73.033,163.125 0,90.092 0,0 Z"
               style="fill:none;stroke:#000000;stroke-width:12.6947;stroke-linecap:butt;stroke-linejoin:miter;stroke-miterlimit:10;stroke-dasharray:none;stroke-opacity:1"
               id="path22" /></g><g
             id="g24"
             transform="translate(722.4023,573.9106)"
             style="stroke-width:0.846318"><path
               d="m 0,0 c 0,-90.091 -73.033,-163.125 -163.125,-163.125 -90.091,0 -163.124,73.034 -163.124,163.125 0,90.091 73.033,163.125 163.124,163.125 C -73.033,163.125 0,90.091 0,0 Z"
               style="fill:none;stroke:#000000;stroke-width:12.6947;stroke-linecap:butt;stroke-linejoin:miter;stroke-miterlimit:10;stroke-dasharray:none;stroke-opacity:1"
               id="path26" /></g></g></g><g
         id="g28"
         transform="translate(559.2773,742.7515)"
         style="stroke-width:0.846318"><path
           d="M 0,0 V -663.946"
           style="fill:none;stroke:#000000;stroke-width:12.6947;stroke-linecap:butt;stroke-linejoin:miter;stroke-miterlimit:10;stroke-dasharray:none;stroke-opacity:1"
           id="path30" /></g><g
         id="g32"
         transform="translate(69.4819,78.8057)"
         style="stroke-width:0.846318"><path
           d="M 0,0 488.52,660.135"
           style="fill:none;stroke:#000000;stroke-width:12.6947;stroke-linecap:butt;stroke-linejoin:miter;stroke-miterlimit:10;stroke-dasharray:none;stroke-opacity:1"
           id="path34" /></g><g
         id="g36"
         transform="translate(559.2773,410.7788)"
         style="stroke-width:0.846318"><path
           d="M 0,0 H -244.897"
           style="fill:none;stroke:#000000;stroke-width:12.6947;stroke-linecap:butt;stroke-linejoin:miter;stroke-miterlimit:10;stroke-dasharray:none;stroke-opacity:1"
           id="path38" /></g><g
         id="g40"
         style="stroke-width:0.846318"><g
           id="g42"
           clip-path="url(#clipPath46)"
           style="stroke-width:0.846318"><g
             id="g48"
             transform="translate(551.7578,743.0225)"
             style="stroke-width:0.846318"><path
               d="m 0,0 c 0.09,-0.799 2.468,-1.188 5.311,-0.869 2.842,0.32 5.075,1.227 4.985,2.026 -0.09,0.8 -2.468,1.189 -5.311,0.869 C 2.143,1.707 -0.09,0.799 0,0"
               style="fill:#000000;fill-opacity:1;fill-rule:nonzero;stroke:none;stroke-width:0.846318"
               id="path50" /></g></g></g></g></g></svg>
